# File created by Blade
# Date/Time:  Tue Apr 07 21:25:43 2015
#---------------------------------------------------------
:version 1.10
:name HOM
:units
  mass 1.0
  length 1.000000
  angle deg
:documentation
     Acclaim Skeleton File
:root
   axis xyz
   order TX TY TZ RX RY RZ
   position 0.000000 0.000000 0.000000
   orientation 0 0 0
:bonedata
   begin
      id 1
      name Spine_dum
      direction 0.000000 1.000000 0.000000
      length 4.885285
      axis 0.0 0.0 0.0 xyz
   end
   begin
      id 2
      name LeftUpLeg_dum
      direction 1.000000 0.000000 0.000000
      length 2.672193
      axis 0.0 0.0 0.0 xyz
   end
   begin
      id 3
      name RightUpLeg_dum
      direction -1.000000 0.000000 0.000000
      length 2.672193
      axis 0.0 0.0 0.0 xyz
   end
   begin
      id 4
      name Spine
      direction 0.000000 1.000000 0.000000
      length 0.000000
      axis 0.0 0.0 0.0 xyz
      dof rx ry rz
   end
   begin
      id 5
      name Spine_dum1
      direction 0.000000 1.000000 0.000000
      length 16.494159
      axis 0.0 0.0 0.0 xyz
   end
   begin
      id 6
      name Spine_dum2
      direction 0.000000 1.000000 0.000000
      length 10.663448
      axis 0.0 0.0 0.0 xyz
   end
   begin
      id 7
      name Spine_dum3
      direction 0.000000 1.000000 0.000000
      length 10.663448
      axis 0.0 0.0 0.0 xyz
   end
   begin
      id 8
      name Head
      direction 0.000000 1.000000 0.000000
      length 4.527550
      axis 0.0 0.0 0.0 xyz
      dof rx ry rz
   end
   begin
      id 9
      name LeftShoulder
      direction 1.000000 0.000000 0.000000
      length 7.531907
      axis 0.0 0.0 -90.0 xyz
      dof rx ry rz
   end
   begin
      id 10
      name LeftArm
      direction 1.000000 0.000000 0.000000
      length 10.229199
      axis 0.0 0.0 -90.0 xyz
      dof rx ry rz
   end
   begin
      id 11
      name LeftForeArm
      direction 1.000000 0.000000 0.000000
      length 8.673495
      axis 0.0 0.0 -90.0 xyz
      dof ry rz rx
   end
   begin
      id 12
      name LeftHand
      direction 0.000000 0.000000 0.000000
      length 0.000000
      axis 0.0 0.0 -90.0 xyz
      dof rx ry rz
   end
   begin
      id 13
      name LeftHand_dum1
      direction 0.000000 0.000000 0.000000
      length 0.000000
      axis 0.0 0.0 -90.0 xyz
   end
   begin
      id 14
      name LeftHand_dum2
      direction 1.000000 0.000000 0.000000
      length 3.937000
      axis 0.0 0.0 -90.0 xyz
   end
   begin
      id 15
      name LeftHandThumb1
      direction 0.000000 0.000000 1.000000
      length 3.937000
      axis 0.0 0.0 -90.0 xyz
      dof rx rz ry
   end
   begin
      id 16
      name RightShoulder
      direction -1.000000 0.000000 0.000000
      length 7.531907
      axis 0.0 0.0 90.0 xyz
      dof rx ry rz
   end
   begin
      id 17
      name RightArm
      direction -1.000000 0.000000 0.000000
      length 10.229199
      axis 0.0 0.0 90.0 xyz
      dof rx ry rz
   end
   begin
      id 18
      name RightForeArm
      direction -1.000000 0.000000 0.000000
      length 8.673495
      axis 0.0 0.0 90.0 xyz
      dof ry rz rx
   end
   begin
      id 19
      name RightHand
      direction 0.000000 0.000000 0.000000
      length 0.000000
      axis 0.0 0.0 90.0 xyz
      dof rx ry rz
   end
   begin
      id 20
      name RightHand_dum1
      direction 0.000000 0.000000 0.000000
      length 0.000000
      axis 0.0 0.0 90.0 xyz
   end
   begin
      id 21
      name RightHand_dum2
      direction -1.000000 0.000000 0.000000
      length 3.937000
      axis 0.0 0.0 90.0 xyz
   end
   begin
      id 22
      name RightHandThumb1
      direction 0.000000 0.000000 1.000000
      length 3.937000
      axis 0.0 0.0 90.0 xyz
      dof rx rz ry
   end
   begin
      id 23
      name LeftUpLeg
      direction 0.000000 -1.000000 0.000000
      length 16.263388
      axis 0.0 0.0 0.0 xyz
      dof rx ry rz
   end
   begin
      id 24
      name LeftLeg
      direction 0.000000 -1.000000 0.000000
      length 14.328163
      axis 0.0 0.0 0.0 xyz
      dof rx ry rz
   end
   begin
      id 25
      name LeftFoot
      direction 0.000000 -0.258819 0.965926
      length 5.031290
      axis 15.0 0.0 0.0 xyz
      dof rx ry rz
   end
   begin
      id 26
      name LeftToeBase
      direction 0.000000 0.000000 1.000000
      length 2.952750
      axis 0.0 0.0 0.0 xyz
      dof rx ry rz
   end
   begin
      id 27
      name RightUpLeg
      direction 0.000000 -1.000000 0.000000
      length 16.263388
      axis 0.0 0.0 0.0 xyz
      dof rx ry rz
   end
   begin
      id 28
      name RightLeg
      direction 0.000000 -1.000000 0.000000
      length 14.328163
      axis 0.0 0.0 0.0 xyz
      dof rx ry rz
   end
   begin
      id 29
      name RightFoot
      direction 0.000000 -0.258819 0.965926
      length 5.031290
      axis 15.0 0.0 0.0 xyz
      dof rx ry rz
   end
   begin
      id 30
      name RightToeBase
      direction 0.000000 0.000000 1.000000
      length 2.952750
      axis 0.0 0.0 0.0 xyz
      dof rx ry rz
   end
:hierarchy
   begin
      root Spine_dum LeftUpLeg_dum RightUpLeg_dum
      Spine_dum Spine
      LeftUpLeg_dum LeftUpLeg
      RightUpLeg_dum RightUpLeg
      Spine Spine_dum1 Spine_dum2 Spine_dum3
      Spine_dum1 Head
      Spine_dum2 LeftShoulder
      Spine_dum3 RightShoulder
      LeftShoulder LeftArm
      LeftArm LeftForeArm
      LeftForeArm LeftHand
      LeftHand LeftHand_dum1 LeftHand_dum2
      LeftHand_dum1 LeftHandThumb1
      RightShoulder RightArm
      RightArm RightForeArm
      RightForeArm RightHand
      RightHand RightHand_dum1 RightHand_dum2
      RightHand_dum1 RightHandThumb1
      LeftUpLeg LeftLeg
      LeftLeg LeftFoot
      LeftFoot LeftToeBase
      RightUpLeg RightLeg
      RightLeg RightFoot
      RightFoot RightToeBase
   end

# File created by Blade
# Date/Time:  Tue Apr 07 21:25:57 2015
# Frame Rate: 120.000 fps
#------------------------------------------------------
:FULLY-SPECIFIED
:DEGREES
26
root -0.674293 32.924968 0.501057 3.465898 2.915156 -0.998863
Spine -6.393264 -6.039362 -0.408176
Head 20.297210 1.226984 -0.013685
LeftShoulder -22.520666 42.769831 20.462259
LeftArm 61.279935 -59.254199 -59.929128
LeftForeArm 10.481263 -0.000000 -3.407099
LeftHand 3.712585 -0.000000 8.240261
LeftHandThumb1 -26.253704 0.000000 33.147579
RightShoulder -9.485845 3.237549 -32.783392
RightArm 15.505220 11.913163 32.916695
RightForeArm -18.832374 -0.000000 0.424090
RightHand 1.284264 -0.000000 -2.489420
RightHandThumb1 -24.326973 -0.000000 -32.862282
LeftUpLeg 4.020880 -4.639073 0.338392
LeftLeg -4.011791 -0.000000 0.000000
LeftFoot -4.735850 5.659529 -18.647605
LeftToeBase -9.613110 -0.000000 0.000000
RightUpLeg 4.025535 0.488957 4.050604
RightLeg -3.526707 -0.000000 0.000000
RightFoot -6.218538 -12.601915 9.034142
RightToeBase -4.044139 -0.000000 0.000000
27
root -0.666859 32.928778 0.500396 3.494134 2.921100 -0.961981
Spine -6.368684 -6.054147 -0.420370
Head 20.624789 1.406132 0.009569
LeftShoulder -22.614472 42.718211 20.432263
LeftArm 61.283590 -59.379792 -59.884006
LeftForeArm 10.555754 -0.000000 -3.200828
LeftHand 3.662588 0.000000 8.628964
LeftHandThumb1 -26.253704 0.000000 33.147579
RightShoulder -9.488703 3.188718 -32.838770
RightArm 15.484209 11.926211 32.817420
RightForeArm -18.841150 -0.000000 0.510569
RightHand 1.291740 -0.000000 -2.730508
RightHandThumb1 -24.326973 -0.000000 -32.862282
LeftUpLeg 3.945542 -4.496352 0.306804
LeftLeg -3.922270 -0.000000 0.000000
LeftFoot -4.674008 5.469191 -18.655724
LeftToeBase -9.650310 -0.000000 0.000000
RightUpLeg 3.963600 0.456738 4.000562
RightLeg -3.458774 -0.000000 0.000000
RightFoot -6.218689 -12.582561 9.022491
RightToeBase -4.085606 -0.000000 0.000000
28
root -0.662962 32.931866 0.499743 3.511215 2.919161 -0.946555
Spine -6.334117 -6.045036 -0.424451
Head 20.986968 1.609230 0.045766
LeftShoulder -22.666420 42.641415 20.426254
LeftArm 61.190874 -59.456478 -59.746737
LeftForeArm 10.507598 0.000000 -3.031967
LeftHand 3.858538 -0.000000 9.095881
LeftHandThumb1 -26.253704 0.000000 33.147579
RightShoulder -9.525423 3.162271 -32.877715
RightArm 15.471295 11.906761 32.742126
RightForeArm -18.883749 -0.000000 0.594574
RightHand 1.268808 0.000000 -2.957426
RightHandThumb1 -24.326973 -0.000000 -32.862282
LeftUpLeg 3.899774 -4.432502 0.293974
LeftLeg -3.866638 -0.000000 0.000000
LeftFoot -4.641263 5.377249 -18.685585
LeftToeBase -9.736453 -0.000000 0.000000
RightUpLeg 3.915951 0.466044 3.982378
RightLeg -3.397903 -0.000000 0.000000
RightFoot -6.219151 -12.606843 8.980870
RightToeBase -4.146737 -0.000000 0.000000
29
root -0.661090 32.934448 0.498130 3.548111 2.920677 -0.943033
Spine -6.323284 -6.044525 -0.414550
Head 21.381046 1.853307 0.085638
LeftShoulder -22.743389 42.580505 20.390366
LeftArm 61.207309 -59.545377 -59.708725
LeftForeArm 10.596362 -0.000000 -2.905621
LeftHand 3.964620 0.000000 9.554888
LeftHandThumb1 -26.253704 0.000000 33.147579
RightShoulder -9.529269 3.127646 -32.914932
RightArm 15.417756 12.038950 32.749597
RightForeArm -18.999872 -0.000000 0.689813
RightHand 1.297497 -0.000000 -3.239965
RightHandThumb1 -24.326973 -0.000000 -32.862282
LeftUpLeg 3.850586 -4.451622 0.292011
LeftLeg -3.854424 -0.000000 0.000000
LeftFoot -4.584927 5.448465 -18.622454
LeftToeBase -9.951863 -0.000000 0.000000
RightUpLeg 3.844657 0.465154 3.977204
RightLeg -3.334744 -0.000000 0.000000
RightFoot -6.216212 -12.604678 8.957711
RightToeBase -4.146493 -0.000000 0.000000
30
root -0.657799 32.937927 0.496381 3.581320 2.922053 -0.937752
Spine -6.305997 -6.013470 -0.408575
Head 21.790099 2.024169 0.157437
LeftShoulder -22.784392 42.517767 20.367118
LeftArm 61.183817 -59.566199 -59.662038
LeftForeArm 10.536354 -0.000000 -2.701643
LeftHand 3.985946 -0.000000 10.135745
LeftHandThumb1 -26.253704 0.000000 33.147579
RightShoulder -9.592051 3.059053 -32.913161
RightArm 15.417614 12.147961 32.752866
RightForeArm -19.118527 0.000000 0.781739
RightHand 1.312057 -0.000000 -3.428655
RightHandThumb1 -24.326973 -0.000000 -32.862282
LeftUpLeg 3.801088 -4.454421 0.286733
LeftLeg -3.829903 -0.000000 0.000000
LeftFoot -4.555809 5.438863 -18.616833
LeftToeBase -9.893531 -0.000000 0.000000
RightUpLeg 3.776454 0.486863 3.968543
RightLeg -3.270117 -0.000000 0.000000
RightFoot -6.211875 -12.629730 8.941353
RightToeBase -4.193537 -0.000000 0.000000
31
root -0.654319 32.941169 0.494174 3.620581 2.916989 -0.929221
Spine -6.292324 -5.981210 -0.404449
Head 22.233907 2.245585 0.221646
LeftShoulder -22.836479 42.450507 20.309561
LeftArm 61.206566 -59.602558 -59.637435
LeftForeArm 10.718277 -0.000000 -2.544371
LeftHand 3.950684 0.000000 10.437452
LeftHandThumb1 -26.253704 0.000000 33.147579
RightShoulder -9.632904 3.016219 -32.896528
RightArm 15.390086 12.176744 32.746651
RightForeArm -19.138319 -0.000000 0.836189
RightHand 1.344268 -0.000000 -3.579332
RightHandThumb1 -24.326973 -0.000000 -32.862282
LeftUpLeg 3.757320 -4.479131 0.274609
LeftLeg -3.826750 -0.000000 0.000000
LeftFoot -4.571116 5.417531 -18.679208
LeftToeBase -9.766982 -0.000000 0.000000
RightUpLeg 3.696196 0.485664 3.952745
RightLeg -3.197935 -0.000000 0.000000
RightFoot -6.213803 -12.620180 8.934075
RightToeBase -4.190818 -0.000000 0.000000
32
root -0.651165 32.943948 0.492364 3.660837 2.912301 -0.927138
Spine -6.291363 -5.949587 -0.394379
Head 22.730137 2.502434 0.308109
LeftShoulder -22.901083 42.436319 20.214413
LeftArm 61.320355 -59.617174 -59.694546
LeftForeArm 10.731794 0.000000 -2.429299
LeftHand 4.063267 -0.000000 10.793464
LeftHandThumb1 -26.253704 0.000000 33.147579
RightShoulder -9.653366 2.971580 -32.836454
RightArm 15.366077 12.232715 32.745858
RightForeArm -19.203615 -0.000000 0.867809
RightHand 1.342292 -0.000000 -3.747954
RightHandThumb1 -24.326973 -0.000000 -32.862282
LeftUpLeg 3.713803 -4.475444 0.274212
LeftLeg -3.834006 -0.000000 0.000000
LeftFoot -4.499343 5.456378 -18.627810
LeftToeBase -9.929812 -0.000000 0.000000
RightUpLeg 3.616942 0.490070 3.945782
RightLeg -3.127472 -0.000000 0.000000
RightFoot -6.201133 -12.621528 8.891180
RightToeBase -4.274114 -0.000000 0.000000
33
root -0.647344 32.947689 0.490713 3.698437 2.907390 -0.929245
Spine -6.293457 -5.920308 -0.372646
Head 23.274983 2.760231 0.389113
LeftShoulder -22.920287 42.405599 20.150380
LeftArm 61.377546 -59.585026 -59.806734
LeftForeArm 10.721205 0.000000 -2.256831
LeftHand 4.230973 -0.000000 11.150890
LeftHandThumb1 -26.253704 0.000000 33.147579
RightShoulder -9.654861 2.972660 -32.777815
RightArm 15.248058 12.081535 32.704898
RightForeArm -19.095123 -0.000000 0.970985
RightHand 1.300118 -0.000000 -3.792784
RightHandThumb1 -24.326973 -0.000000 -32.862282
LeftUpLeg 3.664101 -4.448321 0.273793
LeftLeg -3.816748 -0.000000 0.000000
LeftFoot -4.466908 5.443371 -18.620791
LeftToeBase -9.923259 -0.000000 0.000000
RightUpLeg 3.549549 0.515049 3.940395
RightLeg -3.076396 -0.000000 0.000000
RightFoot -6.172317 -12.625486 8.880382
RightToeBase -4.306639 -0.000000 0.000000
34
root -0.642780 32.950537 0.489888 3.735964 2.910006 -0.922209
Spine -6.298338 -5.888364 -0.359869
Head 23.856815 3.017929 0.485054
LeftShoulder -22.949680 42.414897 20.036077
LeftArm 61.543257 -59.567438 -59.981209
LeftForeArm 10.759193 -0.000000 -2.166072
LeftHand 4.454033 0.000000 11.337539
LeftHandThumb1 -26.253704 0.000000 33.147579
RightShoulder -9.669362 2.964032 -32.695476
RightArm 15.176500 12.029753 32.728352
RightForeArm -19.000959 -0.000000 1.001547
RightHand 1.450978 -0.000000 -4.009808
RightHandThumb1 -24.326973 -0.000000 -32.862282
LeftUpLeg 3.635419 -4.487414 0.261459
LeftLeg -3.839701 -0.000000 0.000000
LeftFoot -4.436998 5.489935 -18.608375
LeftToeBase -9.976276 -0.000000 0.000000
RightUpLeg 3.485701 0.539573 3.922676
RightLeg -3.022917 -0.000000 0.000000
RightFoot -6.175608 -12.619563 8.884848
RightToeBase -4.270910 -0.000000 0.000000
35
root -0.638041 32.953419 0.488618 3.786980 2.908595 -0.921901
Spine -6.320054 -5.857598 -0.330127
Head 24.473461 3.338323 0.567632
LeftShoulder -22.975403 42.453791 19.902535
LeftArm 61.839848 -59.560733 -60.375623
LeftForeArm 10.897513 -0.000000 -1.929034
LeftHand 4.227143 -0.000000 11.458893
LeftHandThumb1 -26.253704 0.000000 33.147579
RightShoulder -9.654539 2.954721 -32.638846
RightArm 15.040653 12.074959 32.858493
RightForeArm -19.032121 -0.000000 1.116205
RightHand 1.396945 0.000000 -4.183436
RightHandThumb1 -24.326973 -0.000000 -32.862282
LeftUpLeg 3.584884 -4.504555 0.254898
LeftLeg -3.844013 -0.000000 0.000000
LeftFoot -4.409747 5.509199 -18.594132
LeftToeBase -9.922657 -0.000000 0.000000
RightUpLeg 3.405128 0.562986 3.912174
RightLeg -2.967170 -0.000000 0.000000
RightFoot -6.165821 -12.619695 8.868692
RightToeBase -4.322726 -0.000000 0.000000
36
root -0.633106 32.956284 0.487153 3.834868 2.910395 -0.916929
Spine -6.337115 -5.829187 -0.310500
Head 25.110568 3.679285 0.714289
LeftShoulder -23.008966 42.519563 19.749711
LeftArm 61.979989 -59.426274 -60.554109
LeftForeArm 10.761521 -0.000000 -1.824141
LeftHand 4.258529 -0.000000 11.709216
LeftHandThumb1 -26.253704 0.000000 33.147579
RightShoulder -9.653782 2.909554 -32.554986
RightArm 14.946718 12.089643 33.029161
RightForeArm -18.957480 -0.000000 1.213830
RightHand 1.430509 -0.000000 -4.490704
RightHandThumb1 -24.326973 -0.000000 -32.862282
LeftUpLeg 3.536690 -4.504303 0.244389
LeftLeg -3.852097 -0.000000 0.000000
LeftFoot -4.377669 5.520300 -18.561011
LeftToeBase -9.958151 -0.000000 0.000000
RightUpLeg 3.335175 0.618713 3.893824
RightLeg -2.923958 -0.000000 0.000000
RightFoot -6.157772 -12.635490 8.903164
RightToeBase -4.322725 -0.000000 0.000000
37
root -0.627503 32.958461 0.485945 3.883072 2.919211 -0.901480
Spine -6.355416 -5.823567 -0.302498
Head 25.786567 4.113415 0.873654
LeftShoulder -23.070035 42.607589 19.588667
LeftArm 62.217276 -59.243582 -60.868342
LeftForeArm 10.851426 -0.000000 -1.745661
LeftHand 4.312105 0.000000 12.078836
LeftHandThumb1 -26.253704 0.000000 33.147579
RightShoulder -9.640669 2.834566 -32.464202
RightArm 14.853245 12.136929 33.270264
RightForeArm -18.915069 -0.000000 1.333411
RightHand 1.483314 -0.000000 -4.862006
RightHandThumb1 -24.326973 -0.000000 -32.862282
LeftUpLeg 3.488896 -4.530835 0.221655
LeftLeg -3.859909 -0.000000 0.000000
LeftFoot -4.348446 5.548949 -18.530387
LeftToeBase -9.944646 -0.000000 0.000000
RightUpLeg 3.265877 0.657419 3.865747
RightLeg -2.879913 -0.000000 0.000000
RightFoot -6.156939 -12.644631 8.918856
RightToeBase -4.389778 -0.000000 0.000000
38
root -0.621282 32.960881 0.484063 3.942550 2.929260 -0.887776
Spine -6.380521 -5.805008 -0.277362
Head 26.462781 4.528386 1.020466
LeftShoulder -23.113022 42.716984 19.398444
LeftArm 62.375473 -59.024882 -61.130917
LeftForeArm 10.842934 -0.000000 -1.664342
LeftHand 4.531682 0.000000 12.252866
LeftHandThumb1 -26.253704 0.000000 33.147579
RightShoulder -9.630978 2.722401 -32.368142
RightArm 14.756956 12.180259 33.533109
RightForeArm -18.701366 -0.000000 1.429702
RightHand 1.840627 0.000000 -5.108515
RightHandThumb1 -24.326973 -0.000000 -32.862282
LeftUpLeg 3.427469 -4.575830 0.198101
LeftLeg -3.863075 -0.000000 0.000000
LeftFoot -4.334250 5.592957 -18.536889
LeftToeBase -9.995685 -0.000000 0.000000
RightUpLeg 3.181154 0.691746 3.837241
RightLeg -2.825495 -0.000000 0.000000
RightFoot -6.164571 -12.646558 8.925567
RightToeBase -4.414783 -0.000000 0.000000
